<?xml version="1.0" encoding="utf-8"?>
<svg xmlns="http://www.w3.org/2000/svg" version="1.0" viewBox="0 0 53 156">
	<title>A symbol of three stacked circles with an overlapping vertical dash at top and bottom.</title>
	<path d="M10.86 9.81a3.49 3.49 0 0 0-2.5.94 26.43 26.43 0 0 0-8 23.6A26.21 26.21 0 0 0 7.3 48.24a26.46 26.46 0 0 0 9.54 6.37 19.3 19.3 0 0 1 9.56-2.68 19.3 19.3 0 0 1 9.55 2.68 26.59 26.59 0 0 0 .43-.14 26.38 26.38 0 0 0 6.8-4.08h.02a26.5 26.5 0 0 0 8.68-13.45c.6-2.26.91-4.6.91-6.91a3.49 3.49 0 0 0 0-.01 3.49 3.49 0 0 0 0-.01 3.49 3.49 0 0 0 0-.01v-.3a3.49 3.49 0 0 0 0-.01 3.49 3.49 0 0 0 0-.02 3.49 3.49 0 0 0 0-.01v-.3a3.49 3.49 0 0 0 0-.01 26.35 26.35 0 0 0-4.33-13.82 26.47 26.47 0 0 0-3.67-4.44 3.49 3.49 0 0 0-4.93.07 3.49 3.49 0 0 0 .07 4.94 19.52 19.52 0 0 1 5.1 8.38c.48 1.63.74 3.33.78 5.04v.5a19.31 19.31 0 0 1-2.93 10.27A19.43 19.43 0 0 1 33.73 48a19.28 19.28 0 0 1-11.49 1 19.53 19.53 0 0 1-9.9-5.58 19.27 19.27 0 0 1-5.23-15.64 19.43 19.43 0 0 1 6.01-11.93 3.49 3.49 0 0 0 .16-4.93 3.49 3.49 0 0 0-2.43-1.1Zm25.1 44.8a19.3 19.3 0 0 0-9.56-2.68 19.3 19.3 0 0 0-9.56 2.68 26.46 26.46 0 0 0 3.93 1.2 26.59 26.59 0 0 0 15.18-1.2zm0 0a26.59 26.59 0 0 1-15.2 1.2 26.46 26.46 0 0 1-3.92-1.2 19.3 19.3 0 0 0-9.7 16.59 19.3 19.3 0 0 0 11.7 17.6 17.84 17.84 0 0 1 15.13 0 19.3 19.3 0 0 0 11.68-17.6 19.3 19.3 0 0 0-9.7-16.6Zm-9.56 2c8.08 0 14.58 6.5 14.58 14.58s-6.5 14.58-14.58 14.58-14.57-6.5-14.57-14.58c0-8.07 6.5-14.57 14.57-14.57zm7.57 32.2a19.3 19.3 0 0 1-7.57 1.64 19.3 19.3 0 0 1-7.57-1.64A18.02 18.02 0 0 0 8.4 105.1c0 9.9 8.1 18 18 18 9.92 0 18-8.1 18-18 0-7.22-4.28-13.44-10.43-16.3zm-7.57 2.26a14 14 0 0 1 14.05 14.04 14 14 0 0 1-14.05 14.03 14 14 0 0 1-14.02-14.03A14 14 0 0 1 26.4 91.07Zm7.57-2.27a17.85 17.85 0 0 0-15.14 0 19.3 19.3 0 0 0 7.57 1.65 19.3 19.3 0 0 0 7.57-1.65z"/>
	<path d="M26.4 0c-2.7.07-3.08 1.74-3.16 4.35.1 5.39 1.3 23.95 1.6 25.49.17.94 1.55 1.08 1.55 1.07zm0 155.4c-2.85-.1-3.25-2.88-3.33-7.2.11-8.94 1.36-39.72 1.68-42.27.1-.9.76-1.62 1.64-1.78zM26.4 0c2.7.07 3.08 1.74 3.16 4.35-.1 5.39-1.29 23.95-1.59 25.49-.18.94-1.56 1.08-1.56 1.07zm0 155.4c2.85-.1 3.25-2.88 3.33-7.2-.1-8.94-1.36-39.72-1.68-42.27-.09-.9-.75-1.62-1.64-1.78z"/>
</svg>
